name D:\school\WTK\thesis\model\3dpredictsim\Results\MidTarsalJoint\Fal_s1_bCst_PF_Natali2010_ls150_MT_k400_d050_MTP_T5_ig24.mot
datacolumns 128
datarows 4
range 1.67753477 1.71108546
endheader
time	pelvis_tilt	pelvis_list	pelvis_rotation	pelvis_tx	pelvis_ty	pelvis_tz	hip_flexion_l	hip_adduction_l	hip_rotation_l	hip_flexion_r	hip_adduction_r	hip_rotation_r	knee_angle_l	knee_angle_r	ankle_angle_l	ankle_angle_r	subtalar_angle_l	subtalar_angle_r	mtj_angle_l	mtj_angle_r	mtp_angle_l	mtp_angle_r	lumbar_extension	lumbar_bending	lumbar_rotation	arm_flex_l	arm_add_l	arm_rot_l	arm_flex_r	arm_add_r	arm_rot_r	elbow_flex_l	elbow_flex_r	pro_sup_l	pro_sup_r	glut_med1_l/activation	glut_med2_l/activation	glut_med3_l/activation	glut_min1_l/activation	glut_min2_l/activation	glut_min3_l/activation	semimem_l/activation	semiten_l/activation	bifemlh_l/activation	bifemsh_l/activation	sar_l/activation	add_long_l/activation	add_brev_l/activation	add_mag1_l/activation	add_mag2_l/activation	add_mag3_l/activation	tfl_l/activation	pect_l/activation	grac_l/activation	glut_max1_l/activation	glut_max2_l/activation	glut_max3_l/activation	iliacus_l/activation	psoas_l/activation	quad_fem_l/activation	gem_l/activation	peri_l/activation	rect_fem_l/activation	vas_med_l/activation	vas_int_l/activation	vas_lat_l/activation	med_gas_l/activation	lat_gas_l/activation	soleus_l/activation	tib_post_l/activation	flex_dig_l/activation	flex_hal_l/activation	tib_ant_l/activation	per_brev_l/activation	per_long_l/activation	per_tert_l/activation	ext_dig_l/activation	ext_hal_l/activation	ercspn_l/activation	intobl_l/activation	extobl_l/activation	glut_med1_r/activation	glut_med2_r/activation	glut_med3_r/activation	glut_min1_r/activation	glut_min2_r/activation	glut_min3_r/activation	semimem_r/activation	semiten_r/activation	bifemlh_r/activation	bifemsh_r/activation	sar_r/activation	add_long_r/activation	add_brev_r/activation	add_mag1_r/activation	add_mag2_r/activation	add_mag3_r/activation	tfl_r/activation	pect_r/activation	grac_r/activation	glut_max1_r/activation	glut_max2_r/activation	glut_max3_r/activation	iliacus_r/activation	psoas_r/activation	quad_fem_r/activation	gem_r/activation	peri_r/activation	rect_fem_r/activation	vas_med_r/activation	vas_int_r/activation	vas_lat_r/activation	med_gas_r/activation	lat_gas_r/activation	soleus_r/activation	tib_post_r/activation	flex_dig_r/activation	flex_hal_r/activation	tib_ant_r/activation	per_brev_r/activation	per_long_r/activation	per_tert_r/activation	ext_dig_r/activation	ext_hal_r/activation	ercspn_r/activation	intobl_r/activation	extobl_r/activation	
          1.67753477	         -2.93017641	          2.13229031	         -5.03288606	          2.09691846	          0.91919442	          0.00157778	         29.30523877	          3.50450008	         -2.13632239	        -17.13538758	         -1.05982511	          6.44864973	        -11.68402616	         -6.98957567	          5.64226265	         -1.48894446	         -4.43440499	          8.06683961	         -0.12948264	          3.93915786	          0.64605452	         14.47720218	         -2.03277122	         -0.34426877	          2.00774073	         -4.20253542	        -13.45795133	          8.02781906	          5.55615979	        -13.45688899	         17.68863285	         15.50279957	         31.68737931	         86.51662706	         86.51662706	          0.05931914	          0.05931927	          0.05000032	          0.05931965	          0.05931960	          0.05001943	          0.11421464	          0.05931915	          0.22831832	          0.05000030	          0.05000062	          0.13942196	          0.30868396	          0.13079526	          0.14316885	          0.10732233	          0.05000022	          0.08346249	          0.09108959	          0.05000096	          0.11296592	          0.15375010	          0.05067966	          0.05000041	          0.15604602	          0.26202224	          0.13174002	          0.05083316	          0.13466866	          0.13149161	          0.11916154	          0.05042799	          0.05009403	          0.05361378	          0.05000004	          0.05000083	          0.05000035	          0.54422999	          0.25965062	          0.16651908	          0.24456600	          0.46836955	          0.21561877	          0.05931968	          0.11318702	          0.10419556	          0.26435545	          0.09921672	          0.07689619	          0.29468938	          0.19629715	          0.11177821	          0.05000125	          0.05000037	          0.05000026	          0.06016384	          0.10988346	          0.08155369	          0.05000198	          0.05000131	          0.05000252	          0.05000086	          0.30833009	          0.08416125	          0.05000438	          0.05000671	          0.05000321	          0.05000220	          0.42140701	          0.64942453	          0.05000102	          0.05000107	          0.05556097	          0.23282074	          0.05000166	          0.05000171	          0.05000147	          0.29693843	          0.40840842	          0.33042167	          0.28749233	          0.28850561	          0.37575030	          0.05000007	          0.05602336	          0.11005789	          0.05000040	          0.05000010	          0.05000038	          0.05000005	          0.05000009	          0.05000013	
          1.68871833	         -2.92755460	          2.21975285	         -5.32391920	          2.11366956	          0.91817331	          0.00138350	         28.67673132	          3.82919965	         -1.89994749	        -17.04908683	         -1.35510101	          6.25424338	        -11.86320274	         -8.82533241	          4.99216807	         -2.03730212	         -4.80661488	          9.01302495	         -0.10510033	          3.39761194	          0.65329175	         15.87179607	         -1.83989642	         -0.54249225	          2.07133723	         -5.06630862	        -13.45790227	          7.74880314	          5.29244325	        -13.46653305	         17.96130716	         15.14075282	         32.85054494	         86.51662706	         86.51662706	          0.05000001	          0.05000007	          0.10068860	          0.05000007	          0.05000008	          0.05000012	          0.09627061	          0.05000045	          0.19244756	          0.05000033	          0.05005650	          0.11751798	          0.26018875	          0.31043693	          0.21079449	          0.12271574	          0.05000075	          0.07036254	          0.13127038	          0.06398910	          0.10633159	          0.12959503	          0.05000014	          0.05932311	          0.41198213	          0.22085629	          0.11104256	          0.05932474	          0.13593360	          0.14034825	          0.11867232	          0.05000028	          0.05932105	          0.05000004	          0.06555634	          0.05001125	          0.05932081	          0.45872677	          0.28772130	          0.20401567	          0.20614270	          0.42664089	          0.18174324	          0.05000005	          0.09540435	          0.08782553	          0.22282297	          0.08362893	          0.06481519	          0.24839131	          0.16545723	          0.09421693	          0.05000475	          0.05000089	          0.05000103	          0.05071168	          0.09262011	          0.16135329	          0.05269400	          0.05938566	          0.05930463	          0.05932076	          0.25988893	          0.07111837	          0.05007363	          0.05000530	          0.05000359	          0.05000579	          0.35520040	          0.60650546	          0.05000311	          0.05932003	          0.05931975	          0.19624369	          0.14275560	          0.12343296	          0.14475512	          0.25028680	          0.34424393	          0.29281969	          0.25674043	          0.24318012	          0.31674614	          0.05000007	          0.05000013	          0.12247662	          0.05000018	          0.05000006	          0.05000031	          0.05458810	          0.05954328	          0.05647523	
          1.69990190	         -2.92136141	          2.31080230	         -5.58579918	          2.13070293	          0.91724079	          0.00120304	         27.93848891	          4.07656486	         -1.64151496	        -16.88830173	         -1.65131271	          6.05248052	        -12.37204089	        -10.77369800	          4.46139440	         -2.73323336	         -5.19568291	          9.92477518	         -0.21284467	          2.72979973	          0.58883890	         17.32041483	         -1.62754551	         -0.75303789	          2.12390012	         -5.95938267	        -13.46396344	          7.51488544	          4.94985883	        -13.47331888	         18.15429404	         14.83982211	         34.00426939	         86.51662706	         86.51662706	          0.23065473	          0.22363348	          0.26904040	          0.33918623	          0.21438371	          0.18774212	          0.09087418	          0.05000327	          0.16221291	          0.07399997	          0.05000230	          0.09905495	          0.21931091	          0.26166468	          0.17767703	          0.11548173	          0.05000072	          0.05931915	          0.11064743	          0.11125115	          0.12592641	          0.10923471	          0.05931649	          0.05000337	          0.34725619	          0.18615799	          0.20898655	          0.05000434	          0.11457734	          0.11829842	          0.10002795	          0.05000100	          0.05000165	          0.05060843	          0.05525693	          0.05000055	          0.05000140	          0.54159326	          0.32457881	          0.17196389	          0.31581259	          0.50570411	          0.15319080	          0.06132255	          0.11752007	          0.07402738	          0.32279686	          0.07049013	          0.05463222	          0.30461638	          0.13946256	          0.07941470	          0.05000189	          0.05000031	          0.05000026	          0.05000023	          0.07806917	          0.13600344	          0.05002284	          0.05005606	          0.05000252	          0.05000192	          0.25939418	          0.05995334	          0.05000131	          0.05000421	          0.05000241	          0.05000163	          0.29939548	          0.57311138	          0.05000036	          0.05000139	          0.05000049	          0.16541221	          0.12032858	          0.10404155	          0.12201364	          0.21096454	          0.29016020	          0.24681515	          0.21640442	          0.20497469	          0.26698288	          0.05000002	          0.09118582	          0.14675547	          0.05000018	          0.05000004	          0.05000018	          0.05000018	          0.05018851	          0.05000006	
          1.71108546	         -2.91373575	          2.39459263	         -5.81322945	          2.14781856	          0.91642913	          0.00100119	         27.15033639	          4.30413068	         -1.38449612	        -16.61843016	         -1.93726193	          5.85829272	        -12.84267537	        -12.87025896	          3.96515507	         -3.59728160	         -5.58813240	         10.80568215	         -0.23333636	          1.97669905	          0.60636929	         18.75692310	         -1.41733050	         -0.96455794	          2.16820792	         -6.83673332	        -13.46983674	          7.32786678	          4.56125594	        -13.48472362	         18.29122078	         14.57801706	         35.13005423	         86.51662706	         86.51662706	          0.32023513	          0.31490310	          0.34499277	          0.28589735	          0.18070301	          0.17924642	          0.07659826	          0.08141753	          0.13672796	          0.06315565	          0.05000088	          0.08349260	          0.18485534	          0.22055528	          0.14978166	          0.15628602	          0.05000043	          0.05000244	          0.09327778	          0.21359297	          0.17948692	          0.15183864	          0.05000010	          0.05000011	          0.29269929	          0.15691104	          0.17615347	          0.05000008	          0.11736186	          0.14396047	          0.09297143	          0.05000004	          0.05000008	          0.05000001	          0.05000002	          0.05000015	          0.05000014	          0.59615442	          0.29516539	          0.16405500	          0.55003770	          0.53515010	          0.27097745	          0.08182677	          0.09905667	          0.06239704	          0.30358315	          0.05941555	          0.05000019	          0.27048913	          0.11755187	          0.06693802	          0.05000330	          0.05000033	          0.05000029	          0.05000027	          0.06580429	          0.13373281	          0.05000066	          0.05000124	          0.05000245	          0.05000122	          0.21868137	          0.05054097	          0.05000143	          0.05000430	          0.05000244	          0.05000158	          0.25235789	          0.52880008	          0.05000035	          0.05000126	          0.05000028	          0.13942455	          0.10143551	          0.13441221	          0.11697844	          0.17782016	          0.24457349	          0.20803832	          0.18240544	          0.17277153	          0.22503766	          0.05000011	          0.10124918	          0.15317313	          0.05000027	          0.06977254	          0.05000039	          0.07352344	          0.05000002	          0.05000005	
